<?xml version="1.0" standalone="no"?>
<!DOCTYPE svg PUBLIC "-//W3C//DTD SVG 20010904//EN"
 "http://www.w3.org/TR/2001/REC-SVG-20010904/DTD/svg10.dtd">
<svg version="1.0" xmlns="http://www.w3.org/2000/svg"
 width="708.000000pt" height="708.000000pt" viewBox="0 0 708.000000 708.000000"
 preserveAspectRatio="xMidYMid meet">
<metadata>
Created by potrace 1.14, written by Peter Selinger 2001-2017
</metadata>
<g transform="translate(0.000000,708.000000) scale(0.100000,-0.100000)"
fill="#000000" stroke="none">
<path d="M1447 6126 c-62 -31 -103 -75 -133 -144 -14 -32 -29 -66 -34 -77 -23
-52 -51 -116 -78 -185 -17 -41 -40 -97 -53 -125 -12 -27 -23 -52 -24 -55 -4
-19 -40 -106 -45 -110 -4 -3 -14 -25 -23 -50 -13 -37 -66 -165 -120 -290 -5
-14 -11 -27 -11 -30 -1 -5 -47 -111 -67 -155 -17 -38 -130 -310 -133 -320 -1
-5 -15 -36 -29 -69 -15 -32 -27 -62 -27 -67 0 -5 -4 -17 -10 -27 -11 -20 -34
-73 -85 -197 -20 -49 -43 -103 -50 -120 -7 -16 -21 -48 -30 -70 -9 -22 -21
-49 -26 -60 -29 -70 -42 -101 -45 -110 -2 -5 -91 -219 -199 -475 -108 -256
-203 -485 -212 -509 -25 -75 -4 -184 46 -238 36 -38 85 -69 128 -82 67 -19
480 -14 540 6 61 21 132 93 156 158 11 28 23 59 27 70 5 11 24 63 43 115 19
52 38 104 43 115 4 11 8 22 9 25 1 3 7 18 13 33 7 16 12 33 12 38 0 12 97 108
110 110 15 2 23 5 45 15 11 5 273 9 605 9 l585 0 47 -27 c59 -36 98 -83 127
-156 13 -31 26 -66 31 -77 4 -11 16 -40 26 -65 11 -24 19 -47 20 -50 0 -3 8
-23 17 -44 10 -22 20 -50 23 -63 4 -13 10 -26 15 -29 5 -3 9 -13 9 -22 0 -34
73 -115 130 -143 l55 -28 252 0 c280 0 311 5 379 63 57 48 87 116 87 190 0 59
-22 124 -110 326 -28 64 -40 94 -137 327 -53 127 -96 233 -96 235 0 4 532 1
550 -4 76 -20 159 -100 180 -172 9 -32 13 -214 15 -682 1 -352 5 -655 9 -674
4 -19 12 -60 17 -90 6 -30 12 -66 15 -80 7 -37 53 -180 71 -220 93 -212 202
-360 363 -492 41 -34 78 -67 82 -73 5 -6 8 -6 8 0 0 6 3 6 8 -1 9 -13 109 -73
187 -112 82 -41 302 -114 340 -113 2 0 19 -5 37 -10 18 -5 51 -12 73 -15 22
-2 69 -9 105 -14 67 -10 395 -7 485 5 117 15 332 72 435 117 76 32 203 100
237 124 17 13 36 24 42 24 6 0 11 4 11 9 0 5 8 12 18 15 16 6 54 38 132 111
208 195 344 473 395 805 20 137 17 2288 -4 2313 -7 10 -10 17 -6 17 4 0 -8 18
-26 41 -38 48 -89 82 -144 95 -56 14 -450 10 -501 -4 -73 -21 -142 -94 -165
-175 -5 -17 -9 -499 -9 -1071 -1 -982 -2 -1046 -20 -1121 -39 -166 -86 -261
-174 -350 -54 -55 -160 -125 -188 -125 -9 0 -19 -4 -22 -9 -5 -8 -51 -22 -126
-37 -45 -9 -243 -9 -295 0 -22 4 -60 14 -85 22 -25 7 -48 14 -53 14 -23 -2
-179 107 -210 147 -10 13 -25 30 -33 38 -38 37 -109 207 -129 307 -15 72 -18
277 -20 1163 -1 556 -4 1017 -7 1025 -19 68 -77 131 -146 163 -47 21 -53 21
-939 22 -572 0 -896 4 -902 10 -5 6 -30 61 -55 122 -25 62 -52 130 -62 150 -9
21 -20 47 -24 58 -4 11 -15 36 -23 55 -8 19 -38 91 -66 160 -56 135 -136 326
-156 375 -11 26 -61 146 -100 240 -105 255 -128 291 -210 331 -37 17 -67 19
-355 21 -311 2 -316 2 -363 -21z m401 -1430 c60 -12 132 -67 162 -126 33 -65
112 -295 117 -342 11 -96 -50 -201 -143 -248 -44 -22 -62 -24 -184 -25 -148
-2 -200 10 -265 59 -48 37 -91 129 -90 191 2 52 12 103 25 120 4 6 10 19 13
30 15 55 70 193 92 231 53 91 157 132 273 110z"/>
</g>
</svg>
